<?xml version="1.0" encoding="utf-8"?>
<!-- Svg Vector Icons : http://www.onlinewebfonts.com/icon -->
<!DOCTYPE svg PUBLIC "-//W3C//DTD SVG 1.1//EN" "http://www.w3.org/Graphics/SVG/1.1/DTD/svg11.dtd">
<svg version="1.1" xmlns="http://www.w3.org/2000/svg" xmlns:xlink="http://www.w3.org/1999/xlink" x="0px" y="0px" viewBox="0 0 256 256" enable-background="new 0 0 256 256" xml:space="preserve">
<metadata> Svg Vector Icons : http://www.onlinewebfonts.com/icon </metadata>
<g><g><path fill="#000000" d="M124.7,137.6c-6.6,24.9-4.9,51-3.8,61.2c11.2-22.5,37.2-72.4,54.6-85.4c-16.2,26.2-40.7,60.7-48.2,90c48.7,0.1,87.8-37.2,96.5-76.6C235.1,75.6,246,61.8,246,61.8C172.8,50.9,137.1,90.7,124.7,137.6L124.7,137.6z M111,177.9c-8.9-7.5-38.9-33.8-47.1-51.1c9.1,10.9,40.4,36.1,48,42.1c2.9-24,9.5-47.1,9.5-47.1s-8.7-19.4-40.6-40.3C60.7,68.3,13.5,52.7,13.5,52.7S-1,108.4,29,153.5c36.1,54.4,82.8,49.6,82.8,49.6C110.4,195.9,110.3,187.1,111,177.9L111,177.9z"/></g></g>
</svg>